<?xml version="1.0" standalone="no"?>
<!DOCTYPE svg PUBLIC "-//W3C//DTD SVG 20010904//EN"
 "http://www.w3.org/TR/2001/REC-SVG-20010904/DTD/svg10.dtd">
<svg version="1.0" xmlns="http://www.w3.org/2000/svg"
 width="1305.000000pt" height="656.000000pt" viewBox="0 0 1305.000000 656.000000"
 preserveAspectRatio="xMidYMid meet">

<g transform="translate(0.000000,656.000000) scale(0.100000,-0.100000)"
fill="#000000" stroke="none">
<path d="M6340 6540 c0 -5 6 -7 13 -5 7 3 113 -143 266 -366 228 -333 252
-372 238 -386 -17 -18 3 -45 -317 425 -113 166 -208 301 -212 302 -11 0 -23
-91 -21 -165 3 -94 34 -208 86 -319 66 -139 121 -192 297 -285 l92 -49 -108
-123 c-280 -320 -498 -511 -700 -616 -109 -57 -322 -142 -364 -145 -40 -3 -40
-2 -21 92 16 77 0 140 -45 179 -41 36 -85 46 -171 37 -168 -17 -328 -121 -409
-265 -35 -64 -74 -182 -74 -228 0 -58 46 -216 90 -310 52 -111 99 -174 167
-223 77 -55 134 -65 254 -46 239 39 369 127 419 285 43 137 15 254 -89 360
-29 29 -51 54 -49 56 2 1 48 19 103 40 139 52 315 145 407 213 108 81 265 221
354 315 70 74 74 77 59 41 -83 -191 -165 -444 -201 -614 -10 -47 -19 -87 -21
-89 -1 -2 -22 14 -47 37 -84 78 -163 80 -244 7 -86 -77 -152 -237 -152 -367 0
-150 71 -324 180 -437 56 -58 273 -169 404 -206 106 -30 236 -34 310 -9 66 23
136 93 194 196 73 129 95 206 90 315 -4 106 -29 167 -106 260 -59 71 -139 116
-237 134 -62 12 -207 6 -280 -11 -22 -5 -41 -7 -43 -5 -6 5 18 124 48 247 56
221 144 456 252 672 69 138 64 134 105 82 71 -91 262 -234 372 -278 49 -20 73
-22 191 -22 120 0 144 4 215 28 44 15 108 43 142 62 l62 34 -13 44 c-39 129
-212 283 -407 363 -84 35 -201 41 -323 19 -48 -10 -90 -16 -92 -14 -1 2 -10
48 -18 103 -35 228 -78 334 -181 444 -54 57 -84 79 -168 120 -122 62 -297 103
-297 71z m945 -953 c382 -106 410 -115 413 -137 3 -18 0 -22 -15 -18 -232 61
-810 223 -817 229 -7 6 -2 39 6 39 2 0 188 -51 413 -113z m-1628 -1152 c-8
-77 -41 -132 -109 -179 -42 -29 -70 -40 -107 -44 -47 -4 -51 -3 -51 17 0 16 6
21 28 21 41 0 129 47 157 84 24 31 50 120 40 136 -5 9 10 18 34 19 11 1 13
-11 8 -54z m1261 -10 c21 -18 49 -55 62 -82 58 -112 25 -435 -39 -394 -12 8
-11 16 4 53 26 63 32 221 11 284 -20 62 -66 119 -117 145 -34 17 -38 22 -29
39 10 19 13 19 41 4 17 -8 47 -30 67 -49z"/>
<path d="M1829 4589 c-798 -81 -1517 -780 -1749 -1699 -16 -63 -37 -158 -46
-210 -22 -127 -30 -485 -15 -632 58 -563 297 -930 715 -1100 289 -118 708
-122 1051 -10 243 79 519 271 715 497 l85 97 6 -143 c11 -257 81 -390 235
-449 67 -26 200 -31 269 -12 69 20 148 74 182 125 75 112 93 206 93 492 0 131
6 246 14 305 46 304 201 562 390 651 153 72 293 33 326 -90 20 -76 2 -151
-103 -434 -123 -329 -152 -542 -101 -742 60 -234 243 -349 499 -314 293 39
539 242 784 644 33 54 62 92 65 84 2 -8 13 -52 25 -99 41 -162 136 -328 246
-429 171 -155 411 -226 685 -200 394 36 750 260 1092 685 76 95 234 330 307
457 43 76 301 605 368 755 27 61 30 61 118 12 62 -36 131 -103 157 -154 37
-72 17 -151 -125 -482 -149 -350 -194 -503 -204 -696 -7 -141 5 -215 53 -315
83 -174 249 -265 484 -266 288 -1 536 158 778 498 34 48 62 81 62 74 0 -41 23
-191 37 -239 69 -242 257 -367 498 -330 140 21 241 66 356 158 142 114 286
294 405 507 l38 70 9 -35 c80 -318 210 -500 439 -616 219 -110 531 -118 808
-19 398 143 777 514 1101 1077 79 139 82 159 27 215 -39 40 -75 55 -124 51
-35 -3 -45 -10 -106 -88 -182 -231 -412 -377 -701 -448 -104 -25 -405 -24
-497 1 -167 47 -259 128 -263 232 -3 78 32 92 126 51 136 -61 387 -77 547 -37
279 72 492 277 582 561 30 96 32 278 4 380 -58 212 -212 363 -433 421 -101 27
-307 29 -436 5 -461 -88 -841 -463 -1017 -1005 -43 -135 -57 -159 -139 -244
-76 -80 -136 -109 -231 -114 -65 -4 -81 -1 -120 19 -61 33 -98 88 -111 167
-17 96 2 197 78 418 126 364 156 506 134 628 -12 64 -30 96 -75 129 -22 17
-41 21 -92 20 -240 -5 -443 -302 -668 -978 -61 -183 -84 -224 -180 -314 -93
-88 -177 -114 -303 -93 -156 27 -223 103 -223 256 0 107 24 198 105 401 135
336 138 447 16 607 -89 117 -303 255 -492 316 -104 34 -263 61 -357 61 -161
-1 -290 -69 -376 -199 -79 -119 -103 -240 -72 -361 20 -78 54 -124 111 -152
l42 -21 -28 -73 c-89 -232 -202 -464 -287 -594 -156 -235 -410 -406 -722 -486
-104 -26 -404 -27 -500 -1 -98 26 -190 77 -227 125 -40 53 -53 121 -29 157 21
32 49 32 119 0 85 -39 186 -56 332 -57 184 -1 320 38 458 129 248 165 390 454
357 725 -38 319 -237 512 -563 548 -202 23 -424 -19 -617 -115 -330 -165 -585
-482 -721 -896 -32 -97 -51 -137 -91 -191 -97 -131 -186 -183 -309 -182 -147
1 -210 69 -217 234 -4 99 14 176 96 407 35 98 53 167 58 220 26 282 -119 488
-368 522 -218 30 -444 -56 -651 -248 -147 -136 -196 -134 -184 8 9 108 53 219
229 575 175 353 216 456 225 568 10 116 -40 182 -150 199 -198 32 -364 -117
-547 -493 -120 -245 -241 -562 -501 -1318 -77 -223 -151 -422 -165 -442 -37
-57 -149 -145 -242 -189 -311 -148 -814 -155 -1117 -15 -220 102 -367 272
-431 501 -24 82 -34 256 -22 353 43 353 258 674 533 795 175 77 379 75 471 -5
113 -99 104 -270 -27 -562 -73 -161 -67 -213 32 -264 39 -21 54 -23 124 -18
413 26 822 463 863 922 32 348 -121 605 -431 725 -172 66 -453 99 -658 78z
m4656 -1736 c66 -34 105 -104 105 -188 0 -54 -49 -154 -97 -196 -113 -98 -294
-106 -388 -15 -133 128 -40 365 162 416 61 15 172 6 218 -17z m5340 16 c208
-57 188 -351 -30 -451 -71 -32 -202 -33 -262 0 -183 97 -118 378 103 445 59
19 134 21 189 6z"/>
<path d="M10203 4435 c-128 -28 -205 -77 -264 -168 -86 -132 -93 -359 -16
-475 69 -102 194 -153 377 -154 187 0 287 31 378 116 152 143 174 452 41 585
-41 41 -113 77 -191 96 -77 18 -241 18 -325 0z"/>
<path d="M8740 561 c-130 -42 -198 -153 -188 -307 11 -162 116 -254 293 -254
126 0 218 49 261 137 25 50 29 70 29 143 -1 104 -16 159 -57 206 -53 60 -99
78 -213 81 -55 1 -111 -1 -125 -6z m174 -146 c41 -20 57 -47 62 -109 6 -59
-14 -107 -57 -139 -30 -22 -114 -26 -149 -7 -36 19 -60 70 -60 128 0 94 43
141 128 142 24 0 58 -7 76 -15z"/>
<path d="M10791 559 c-117 -47 -159 -184 -81 -264 37 -38 66 -50 179 -74 89
-19 110 -41 71 -73 -20 -16 -33 -19 -69 -14 -52 7 -77 27 -86 68 -6 27 -10 29
-38 24 -18 -3 -51 -8 -75 -12 l-42 -7 6 -36 c18 -99 85 -153 206 -167 107 -12
212 27 251 93 26 46 26 136 0 171 -31 42 -79 70 -141 82 -99 19 -137 34 -140
54 -5 26 11 38 54 38 41 0 74 -28 74 -62 0 -17 4 -17 73 -2 39 8 73 16 74 17
2 1 -4 24 -12 51 -26 88 -88 124 -207 123 -40 0 -84 -5 -97 -10z"/>
<path d="M6600 290 l0 -270 195 0 195 0 0 65 0 64 -117 3 -118 3 -3 38 -3 37
105 0 106 0 0 65 0 65 -105 0 -105 0 0 30 0 30 120 0 120 0 0 70 0 70 -195 0
-195 0 0 -270z"/>
<path d="M7157 548 c4 -7 42 -63 85 -125 43 -61 78 -117 78 -123 0 -6 -35 -66
-78 -133 -43 -67 -82 -128 -86 -134 -6 -10 14 -13 86 -13 l93 1 49 79 c27 44
50 80 51 80 1 0 24 -36 51 -80 l49 -79 93 -1 c50 0 92 2 92 5 0 2 -40 65 -89
140 l-89 135 89 124 c49 69 89 127 89 130 0 3 -42 6 -92 6 l-93 0 -49 -75
c-27 -41 -50 -75 -51 -75 -2 0 -25 34 -51 75 l-47 75 -94 0 c-73 0 -92 -3 -86
-12z"/>
<path d="M7900 291 l0 -271 80 0 80 0 0 85 0 85 79 0 c160 0 221 52 221 187 0
83 -21 123 -82 155 -39 20 -60 23 -210 26 l-168 4 0 -271z m266 133 c31 -8 45
-45 30 -75 -12 -24 -43 -36 -103 -38 l-33 -1 0 60 0 60 43 0 c23 0 52 -3 63
-6z"/>
<path d="M9350 290 l0 -270 80 0 80 0 0 95 0 95 28 0 c42 0 59 -19 78 -85 23
-80 60 -115 121 -115 47 0 123 34 123 54 0 6 -10 31 -21 56 -17 38 -22 42 -30
28 -18 -32 -35 -19 -53 39 -13 44 -14 59 -5 62 7 2 23 15 36 29 55 60 49 177
-12 231 -45 40 -108 51 -280 51 l-145 0 0 -270z m300 120 c11 -11 20 -24 20
-30 0 -5 -9 -19 -20 -30 -16 -16 -33 -20 -80 -20 l-60 0 0 50 0 50 60 0 c47 0
64 -4 80 -20z"/>
<path d="M10020 490 l0 -69 73 -3 72 -3 3 -198 2 -197 80 0 80 0 2 197 3 198
73 3 72 3 0 69 0 70 -230 0 -230 0 0 -70z"/>
</g>
</svg>
